<svg width="18" height="19" viewBox="0 0 18 19" fill="none" xmlns="http://www.w3.org/2000/svg">
<g clip-path="url(#clip0_577_571)">
<path d="M6.00048 9.5C6.00048 7.84321 7.34322 6.49976 9 6.49976C10.6568 6.49976 12.0002 7.84321 12.0002 9.5C12.0002 11.1568 10.6568 12.5002 9 12.5002C7.34322 12.5002 6.00048 11.1568 6.00048 9.5ZM4.37859 9.5C4.37859 12.0524 6.44758 14.1214 9 14.1214C11.5524 14.1214 13.6214 12.0524 13.6214 9.5C13.6214 6.94758 11.5524 4.87859 9 4.87859C6.44758 4.87859 4.37859 6.94758 4.37859 9.5ZM12.7243 4.6954C12.7243 5.29152 13.2078 5.77569 13.8046 5.77569C14.4007 5.77569 14.8849 5.29152 14.8849 4.6954C14.8849 4.09927 14.4015 3.61583 13.8046 3.61583C13.2078 3.61583 12.7243 4.09927 12.7243 4.6954ZM5.36365 16.8258C4.48619 16.7858 4.00929 16.6397 3.69233 16.5161C3.27213 16.3525 2.97262 16.1577 2.65711 15.8429C2.34233 15.5281 2.14677 15.2286 1.98393 14.8084C1.86034 14.4914 1.71422 14.0145 1.67423 13.1371C1.63061 12.1884 1.62189 11.9034 1.62189 9.5C1.62189 7.09661 1.63134 6.81236 1.67423 5.86292C1.71422 4.98546 1.86107 4.50929 1.98393 4.1916C2.1475 3.77141 2.34233 3.47189 2.65711 3.15638C2.97189 2.8416 3.27141 2.64604 3.69233 2.4832C4.00929 2.35961 4.48619 2.21349 5.36365 2.17351C6.31236 2.12989 6.59733 2.12116 9 2.12116C11.4034 2.12116 11.6876 2.13061 12.6371 2.17351C13.5145 2.21349 13.9907 2.36034 14.3084 2.4832C14.7286 2.64604 15.0281 2.8416 15.3436 3.15638C15.6584 3.47116 15.8532 3.77141 16.0168 4.1916C16.1404 4.50856 16.2865 4.98546 16.3265 5.86292C16.3701 6.81236 16.3788 7.09661 16.3788 9.5C16.3788 11.9027 16.3701 12.1876 16.3265 13.1371C16.2865 14.0145 16.1397 14.4914 16.0168 14.8084C15.8532 15.2286 15.6584 15.5281 15.3436 15.8429C15.0288 16.1577 14.7286 16.3525 14.3084 16.5161C13.9914 16.6397 13.5145 16.7858 12.6371 16.8258C11.6884 16.8694 11.4034 16.8781 9 16.8781C6.59733 16.8781 6.31236 16.8694 5.36365 16.8258ZM5.2895 0.554523C4.33134 0.598142 3.67706 0.750081 3.10493 0.972536C2.51317 1.20226 2.01155 1.5105 1.51066 2.01066C1.0105 2.51082 0.702262 3.01244 0.472536 3.60493C0.250081 4.17706 0.0981422 4.83134 0.0545234 5.7895C0.0101777 6.74911 0 7.0559 0 9.5C0 11.9441 0.0101777 12.2509 0.0545234 13.2105C0.0981422 14.1687 0.250081 14.8229 0.472536 15.3951C0.702262 15.9868 1.00977 16.4892 1.51066 16.9893C2.01082 17.4895 2.51244 17.797 3.10493 18.0275C3.67779 18.2499 4.33134 18.4019 5.2895 18.4455C6.24984 18.4891 6.5559 18.5 9 18.5C11.4448 18.5 11.7509 18.4898 12.7105 18.4455C13.6687 18.4019 14.3229 18.2499 14.8951 18.0275C15.4868 17.797 15.9885 17.4895 16.4893 16.9893C16.9895 16.4892 17.297 15.9868 17.5275 15.3951C17.7499 14.8229 17.9026 14.1687 17.9455 13.2105C17.9891 12.2502 17.9993 11.9441 17.9993 9.5C17.9993 7.0559 17.9891 6.74911 17.9455 5.7895C17.9019 4.83134 17.7499 4.17706 17.5275 3.60493C17.297 3.01317 16.9895 2.51155 16.4893 2.01066C15.9892 1.5105 15.4868 1.20226 14.8958 0.972536C14.3229 0.750081 13.6687 0.597415 12.7112 0.554523C11.7516 0.510905 11.4448 0.5 9.00073 0.5C6.5559 0.5 6.24984 0.510178 5.2895 0.554523Z" fill="#132238"/>
</g>
<defs>
<clipPath id="clip0_577_571">
<rect width="18" height="18" fill="white" transform="translate(0 0.5)"/>
</clipPath>
</defs>
</svg>
