<svg width="18" height="19" viewBox="0 0 18 19" fill="none" xmlns="http://www.w3.org/2000/svg">
<g clip-path="url(#clip0_577_574)">
<path d="M0 2.59066C0 1.98459 0.202708 1.48459 0.608108 1.09066C1.01351 0.696719 1.54055 0.499756 2.18919 0.499756C2.82626 0.499756 3.34169 0.693683 3.73552 1.08157C4.14092 1.48157 4.34363 2.00277 4.34363 2.64521C4.34363 3.22702 4.14672 3.71186 3.7529 4.09975C3.3475 4.49975 2.81467 4.69975 2.15444 4.69975H2.13707C1.49999 4.69975 0.984562 4.49975 0.590734 4.09975C0.196905 3.69975 0 3.19671 0 2.59066ZM0.225869 18.4997V6.35429H4.08301V18.4997H0.225869ZM6.22008 18.4997H10.0772V11.7179C10.0772 11.2937 10.1236 10.9664 10.2162 10.7361C10.3784 10.324 10.6245 9.97549 10.9546 9.69065C11.2847 9.4058 11.6988 9.26338 12.1969 9.26338C13.4942 9.26338 14.1429 10.1785 14.1429 12.0088V18.4997H18V11.5361C18 9.74216 17.5946 8.38156 16.7838 7.45429C15.973 6.52702 14.9016 6.06338 13.5695 6.06338C12.0753 6.06338 10.9112 6.73611 10.0772 8.08156V8.11793H10.0598L10.0772 8.08156V6.35429H6.22008C6.24324 6.74216 6.25483 7.94822 6.25483 9.97247C6.25483 11.9967 6.24324 14.8391 6.22008 18.4997Z" fill="#132238"/>
</g>
<defs>
<clipPath id="clip0_577_574">
<rect width="18" height="18" fill="white" transform="translate(0 0.5)"/>
</clipPath>
</defs>
</svg>
