<svg width="18" height="19" viewBox="0 0 18 19" fill="none" xmlns="http://www.w3.org/2000/svg">
<g clip-path="url(#clip0_577_565)">
<path d="M0 9.5C0 7.86799 0.402012 6.36201 1.206 4.982C2.01001 3.60199 3.10201 2.51001 4.482 1.706C5.86201 0.901994 7.36801 0.5 9 0.5C10.632 0.5 12.138 0.901994 13.518 1.706C14.898 2.51001 15.99 3.60199 16.794 4.982C17.598 6.36201 18 7.86799 18 9.5C18 11.132 17.598 12.638 16.794 14.018C15.99 15.398 14.898 16.49 13.518 17.294C12.138 18.098 10.632 18.5 9 18.5C7.36801 18.5 5.86201 18.098 4.482 17.294C3.10201 16.49 2.01001 15.398 1.206 14.018C0.402012 12.638 0 11.132 0 9.5ZM1.494 9.5C1.494 11.372 2.124 13.022 3.384 14.45C3.96 13.322 4.87201 12.248 6.12 11.228C7.36801 10.208 8.586 9.56601 9.774 9.302C9.594 8.88201 9.42001 8.50401 9.252 8.168C7.18801 8.82801 4.95601 9.158 2.556 9.158C2.088 9.158 1.74001 9.15201 1.512 9.14C1.512 9.18801 1.50901 9.248 1.503 9.32C1.49701 9.392 1.494 9.45199 1.494 9.5ZM1.728 7.646C1.99201 7.66999 2.38201 7.682 2.898 7.682C4.90201 7.682 6.804 7.412 8.604 6.872C7.69201 5.252 6.69001 3.902 5.598 2.822C4.65001 3.30201 3.83701 3.96801 3.159 4.82C2.48101 5.67199 2.00401 6.61401 1.728 7.646ZM4.41 15.422C5.76601 16.478 7.29601 17.006 9 17.006C9.88801 17.006 10.77 16.838 11.646 16.502C11.406 14.45 10.938 12.464 10.242 10.544C9.13801 10.784 8.02501 11.39 6.903 12.362C5.78101 13.334 4.95 14.354 4.41 15.422ZM7.164 2.246C8.22001 3.33801 9.198 4.69999 10.098 6.332C11.73 5.648 12.96 4.77801 13.788 3.722C12.396 2.57 10.8 1.994 9 1.994C8.388 1.994 7.776 2.07801 7.164 2.246ZM10.746 7.61C10.926 7.99399 11.13 8.47999 11.358 9.068C12.246 8.98399 13.212 8.942 14.256 8.942C15 8.942 15.738 8.96 16.47 8.996C16.374 7.36399 15.786 5.91201 14.706 4.64C13.926 5.80401 12.606 6.79401 10.746 7.61ZM11.808 10.328C12.42 12.104 12.834 13.928 13.05 15.8C13.998 15.188 14.772 14.402 15.372 13.442C15.972 12.482 16.332 11.444 16.452 10.328C15.576 10.268 14.778 10.238 14.058 10.238C13.398 10.238 12.648 10.268 11.808 10.328Z" fill="#132238"/>
</g>
<defs>
<clipPath id="clip0_577_565">
<rect width="18" height="18" fill="white" transform="translate(0 0.5)"/>
</clipPath>
</defs>
</svg>
